<?xml version="1.0" encoding="UTF-8"?>
<svg width="32px" height="25px" viewBox="0 0 32 25" version="1.1" xmlns="http://www.w3.org/2000/svg" xmlns:xlink="http://www.w3.org/1999/xlink">
    <!-- Generator: Sketch 55.2 (78181) - https://sketchapp.com -->
    <title>Logo</title>
    <desc>Created with Sketch.</desc>
    <g id="Final-designs-17/10/2019" stroke="none" stroke-width="1" fill="none" fill-rule="evenodd">
        <g id="1a_s0.-Landing-page" transform="translate(-20.000000, -10.000000)" fill="#141414">
            <g id="Bar-top">
                <g id="Logo" transform="translate(20.000000, 10.000000)">
                    <path d="M21.6269296,16.1076056 C20.5989859,16.2735775 20.0734648,17.0329014 20.0734648,18.3691268 C20.0734648,19.7135775 20.7735211,20.6127324 21.8467606,20.6127324 C22.3461408,20.6127324 22.7998873,20.4467606 23.7536901,19.9789296 L23.7536901,21.0664789 C22.6089014,21.5915493 21.9349859,21.7540282 21.0127324,21.7540282 C20.0140845,21.7540282 19.3115493,21.4887887 18.7378028,20.9041127 C18.1498592,20.3159437 17.8557746,19.5390423 17.8557746,18.6741408 C17.8557746,16.7498592 19.280338,15.4478873 21.3611268,15.4478873 C22.7430986,15.4478873 23.6936338,16.0793239 23.6936338,17.0066479 C23.6936338,17.6037183 23.2512676,18.0145352 22.5948169,18.0145352 C22.2579155,18.0145352 21.9810704,17.9263099 21.6269296,17.7206761 L21.6269296,16.1076056" id="Fill-1"></path>
                    <path d="M16.5542535,18.6741408 C17.4759437,17.5122254 17.8014648,17.0437183 17.8014648,16.4732394 C17.8014648,15.9052394 17.3505352,15.4478873 16.748169,15.4478873 C16.3771268,15.4478873 16.0431549,15.6230986 15.8801127,15.8051831 L15.8801127,18.1719437 L14.3699155,20.184 L14.3699155,15.5967324 L12.9341972,15.5967324 L10.547493,19.5535775 L10.547493,15.5967324 L9.72247887,15.5967324 L7.55594366,16.1249577 L7.55594366,16.6787606 L8.73769014,16.7986479 L8.73769014,21.6512676 L10.2652394,21.6512676 L12.5543662,17.8892394 L12.5543662,21.6512676 L14.2271549,21.6512676 L16.5542535,18.6741408" id="Fill-2"></path>
                    <path d="M2.99402817,23.5557183 L3.98456338,23.776 L3.98467606,24.3380282 L0.0988169014,24.3380282 L0.0988169014,23.776 L0.984338028,23.5557183 L0.984338028,16.7672113 L-1.93178806e-13,16.7672113 L-1.93178806e-13,16.1850141 L2.37723944,15.4629859 L2.99402817,15.4629859 L2.99402817,16.2735775 C4.10738028,15.6111549 4.48991549,15.4938592 5.06095775,15.4938592 C6.37983099,15.4938592 7.35323944,16.7101972 7.35323944,18.3943662 C7.35323944,20.3414085 6.05430986,21.6512676 4.00766197,21.6512676 C3.77622535,21.6512676 3.39109859,21.6371831 2.99402817,21.5915493 L2.99402817,23.5557183 Z M2.99402817,20.9041127 C3.15673239,20.9117746 3.22794366,20.9117746 3.33070423,20.9117746 C4.56123944,20.9117746 5.22073239,20.1446761 5.22073239,18.6741408 C5.22073239,17.4291831 4.68112676,16.7672113 3.68507042,16.7672113 C3.51932394,16.7672113 3.34523944,16.7873803 2.99402817,16.8300845 L2.99402817,20.9041127 L2.99402817,20.9041127 Z" id="Fill-4"></path>
                    <polygon id="Fill-6" points="14.3734085 11.9926761 20.3221408 11.9926761 20.3221408 10.5054648 14.3734085 10.5054648"></polygon>
                    <path d="M30.4304225,10.208338 L31.6425915,10.208338 L31.6425915,7.82850704 L30.4304225,7.82850704 L30.4304225,10.208338 Z M27.4214085,10.208338 L30.1332958,10.208338 L30.1332958,7.82850704 L27.4214085,7.82850704 L27.4214085,10.208338 Z M20.6191549,1.25757746 L25.9572958,1.25757746 L25.9572958,0.392901408 L20.6191549,0.392901408 L20.6191549,1.25757746 Z M26.2543099,3.06828169 L27.1242817,3.06828169 L27.1242817,1.55470423 L26.2543099,1.55470423 L26.2543099,3.06828169 Z M26.2543099,7.53149296 L27.1242817,7.53149296 L27.1242817,3.36529577 L26.2543099,3.36529577 L26.2543099,7.53149296 Z M26.2543099,10.208338 L27.1242817,10.208338 L27.1242817,7.82850704 L26.2543099,7.82850704 L26.2543099,10.208338 Z M24.0291831,10.208338 L25.9572958,10.208338 L25.9572958,7.82850704 L24.0291831,7.82850704 L24.0291831,10.208338 Z M20.6191549,10.208338 L23.7323944,10.208338 L23.7323944,7.82850704 L20.6191549,7.82850704 L20.6191549,10.208338 Z M25.9572958,3.36529577 L25.9572958,7.53149296 L24.0291831,7.53149296 L24.0291831,6.04112676 L20.6197183,6.04123944 L20.6191549,3.36529577 L25.9572958,3.36529577 Z M20.6191549,3.06828169 L25.9572958,3.06828169 L25.9572958,1.55470423 L20.6191549,1.55470423 L20.6191549,3.06828169 Z M20.6191549,7.53149296 L23.7323944,7.53149296 L23.7323944,6.33825352 L20.6191549,6.33825352 L20.6191549,7.53149296 Z M27.4214085,7.53149296 L30.1332958,7.53149296 L30.1332958,3.36529577 L27.4214085,3.36529577 L27.4214085,7.53149296 Z M30.4304225,7.53149296 L30.4304225,3.06828169 L27.4214085,3.06828169 L27.4214085,1.25757746 L26.2543099,1.25757746 L26.2543099,0.0958873239 L20.3221408,0.0958873239 L20.3221408,10.5054648 L31.9396056,10.5054648 L31.9396056,7.53149296 L30.4304225,7.53149296 L30.4304225,7.53149296 Z" id="Fill-7"></path>
                </g>
            </g>
        </g>
    </g>
</svg>